<svg width="80px" height="80px" xmlns="http://www.w3.org/2000/svg" version="1.1" viewBox="-5.0 -10.0 110.0 135.0">
 <path d="m39.656 48.828c0-0.85938 0.70312-1.5625 1.5625-1.5625h6.9844c0.85938 0 1.5625 0.70312 1.5625 1.5625s-0.70312 1.5625-1.5625 1.5625h-6.9844c-0.85938 0-1.5625-0.70312-1.5625-1.5625zm1.5625-22.797h6.9844c0.85938 0 1.5625-0.70312 1.5625-1.5625s-0.70312-1.5625-1.5625-1.5625h-6.9844c-0.85938 0-1.5625 0.70312-1.5625 1.5625s0.70312 1.5625 1.5625 1.5625zm0 6.7031h17.547c0.85938 0 1.5625-0.70312 1.5625-1.5625s-0.70312-1.5625-1.5625-1.5625h-17.547c-0.85938 0-1.5625 0.70312-1.5625 1.5625s0.70312 1.5625 1.5625 1.5625zm53.5 0.51562c0.125 0.8125-0.078125 1.6406-0.5625 2.3125l-11.922 16.281c-0.3125 0.42188-0.78125 0.64062-1.2656 0.64062-0.32812 0-0.64062-0.09375-0.92188-0.29688-0.70312-0.51562-0.84375-1.4844-0.34375-2.1875l11.922-16.281-2.7969-2.0312-15.641 21.344v37.062c0 2.875-2.3438 5.2188-5.2031 5.2188h-58.094c-2.875 0-5.2188-2.3438-5.2188-5.2188v-80.172c0-2.875 2.3438-5.2188 5.2188-5.2188h45.391c1.3906 0 2.7188 0.53125 3.7188 1.5l12.578 12.203c1.0312 1 1.625 2.3906 1.625 3.8438v2.8906l3.7031-5.0469c1.3438-1.8438 3.4062-3.0312 5.6719-3.2969l2.6094-3.5625c1.8281-2.5 5.3594-3.0312 7.8594-1.2031 1.2188 0.89062 2 2.1875 2.2344 3.6719s-0.14062 2.9688-1.0156 4.1719l-2.6875 3.6562c0.29688 1.8594 0 3.8125-0.95312 5.5625l2.8906 2.125c0.67188 0.48438 1.1094 1.2188 1.2344 2.0312zm-7.0312-18.172-1.5312 2.0781c1.0469 0.35938 2.0312 0.90625 2.875 1.6562 0.4375 0.39062 0.8125 0.82812 1.1406 1.2969l1.5312-2.0938c0.39062-0.53125 0.5625-1.2031 0.45312-1.8594-0.09375-0.65625-0.45312-1.2344-0.98438-1.625-1.1094-0.8125-2.6719-0.57812-3.4844 0.53125zm-8.9219 25.047-8.25-6.0469-22.969 31.344 8.1094 6.0625h0.125l22.969-31.359zm-33.703 38.594 7.6406-5.5-5.9062-4.3281-2.9531 8.9531c-0.17188 0.51562 0.125 0.79688 0.26562 0.90625s0.5 0.29688 0.9375 0zm13.312-68.75v9.125h9.4062zm11.688 47.312-11.75 16.031c-0.51562 0.6875-1.25 1.1406-2.1094 1.2812h-0.078125l-9.2344 6.6406c-0.70312 0.51562-1.5156 0.76562-2.3125 0.76562-0.28125 0-0.5625-0.046875-0.84375-0.10938l-0.92188 1.25c-0.3125 0.42188-0.78125 0.64062-1.2656 0.64062-0.32812 0-0.64062-0.09375-0.92188-0.29688-0.70312-0.51562-0.84375-1.4844-0.34375-2.1875l0.92188-1.25c-0.54688-0.9375-0.6875-2.0938-0.32812-3.2031l3.5625-10.812c-0.15625-0.82812 0.03125-1.7344 0.5625-2.4688l4.75-6.4844h-8.5469c-0.85938 0-1.5625-0.70312-1.5625-1.5625s0.70312-1.5625 1.5625-1.5625h10.844l18-24.562v-7.1562-0.03125h-13.25c-0.85938 0-1.5625-0.70312-1.5625-1.5625v-12.812h-45.344c-1.1562 0-2.0938 0.9375-2.0938 2.0938v80.156c0 1.1562 0.9375 2.0938 2.0938 2.0938h58.094c1.1562 0 2.0781-0.9375 2.0781-2.0938zm17.438-29.062c1.6406-2.2344 1.4062-5.3281-0.53125-7.0625-0.95312-0.85938-2.1562-1.3125-3.4062-1.3125-0.1875 0-0.35938 0-0.54688 0.03125-1.4375 0.15625-2.7344 0.90625-3.5938 2.0625l-7.0469 9.625 8.25 6.0469zm-52.703 18.828v10.25c0 2.5312-2.0625 4.5938-4.5938 4.5938h-10.25c-2.5312 0-4.5938-2.0625-4.5938-4.5938v-10.25c0-2.5312 2.0625-4.5938 4.5938-4.5938h10.25c2.5312 0 4.5938 2.0625 4.5938 4.5938zm-3.125 0c0-0.8125-0.65625-1.4688-1.4688-1.4688h-10.25c-0.8125 0-1.4688 0.65625-1.4688 1.4688v10.25c0 0.8125 0.65625 1.4688 1.4688 1.4688h10.25c0.8125 0 1.4688-0.65625 1.4688-1.4688zm3.125 24.375v10.25c0 2.5312-2.0625 4.5938-4.5938 4.5938h-10.25c-2.5312 0-4.5938-2.0625-4.5938-4.5938v-10.25c0-2.5312 2.0625-4.5938 4.5938-4.5938h10.25c2.5312 0 4.5938 2.0625 4.5938 4.5938zm-3.125 0c0-0.8125-0.65625-1.4688-1.4688-1.4688h-10.25c-0.8125 0-1.4688 0.65625-1.4688 1.4688v10.25c0 0.8125 0.65625 1.4688 1.4688 1.4688h10.25c0.8125 0 1.4688-0.65625 1.4688-1.4688zm-4.875-22.078-2.6406 2.9688-0.82812-0.84375c-0.60938-0.625-1.5938-0.625-2.2031-0.015625s-0.625 1.5938-0.015625 2.2031l2 2.0469c0.29688 0.29688 0.70312 0.46875 1.1094 0.46875h0.03125c0.4375 0 0.84375-0.20312 1.125-0.53125l3.75-4.2188c0.57812-0.64062 0.51562-1.625-0.125-2.2031s-1.625-0.51562-2.2031 0.125zm0 24.359-2.6406 2.9688-0.82812-0.84375c-0.60938-0.625-1.5938-0.625-2.2031-0.015625s-0.625 1.5938-0.015625 2.2031l2 2.0469c0.29688 0.29688 0.70312 0.46875 1.1094 0.46875h0.03125c0.4375 0 0.84375-0.20312 1.125-0.53125l3.75-4.2188c0.57812-0.64062 0.51562-1.6406-0.125-2.2031-0.64062-0.57812-1.6406-0.51562-2.2031 0.125zm8-51.016v10.25c0 2.5312-2.0625 4.5938-4.5938 4.5938h-10.25c-2.5312 0-4.5938-2.0625-4.5938-4.5938v-10.25c0-2.5312 2.0625-4.5938 4.5938-4.5938h10.25c2.5312 0 4.5938 2.0625 4.5938 4.5938zm-3.125 0c0-0.8125-0.65625-1.4688-1.4688-1.4688h-10.25c-0.8125 0-1.4688 0.65625-1.4688 1.4688v10.25c0 0.8125 0.65625 1.4688 1.4688 1.4688h10.25c0.8125 0 1.4688-0.65625 1.4688-1.4688zm-4.875 2.2969-2.6406 2.9688-0.82812-0.84375c-0.60938-0.625-1.5938-0.625-2.2031-0.015625s-0.625 1.5938-0.015625 2.2031l2 2.0469c0.29688 0.29688 0.70312 0.46875 1.1094 0.46875h0.03125c0.4375 0 0.84375-0.20312 1.125-0.53125l3.75-4.2188c0.57812-0.64062 0.51562-1.6406-0.125-2.2031-0.64062-0.57812-1.6406-0.51562-2.2031 0.125z"/>
</svg>