<svg  width="50px" height="50px" xmlns="http://www.w3.org/2000/svg" data-name="Layer 1" viewBox="0 0 95 118.75" x="0px" y="0px"><path d="M43.933,37.739a3.962,3.962,0,0,0,3.856,2.941h1.484l.063,4.1a.927.927,0,0,0,1.479.732l6.54-4.83H65.42a3.957,3.957,0,0,0,3.856-2.941L73.407,22.7a4,4,0,0,0-3.857-5.057H43.66A4,4,0,0,0,39.8,22.7Zm-1.978-17.4a2.047,2.047,0,0,1,1.7-.843H69.55a2.142,2.142,0,0,1,2.067,2.708l-4.131,15.04a2.121,2.121,0,0,1-2.066,1.575H57.05a.926.926,0,0,0-.551.182l-5.335,3.94-.049-3.208a.927.927,0,0,0-.927-.914h-2.4a2.1,2.1,0,0,1-2.066-1.575l-4.129-15.04A2.043,2.043,0,0,1,41.955,20.343Zm6.176,5.964a.928.928,0,0,1,.929-.928h7.545a.928.928,0,0,1,0,1.856H49.06A.928.928,0,0,1,48.131,26.307Zm0,5.265a.929.929,0,0,1,.929-.928H64.15a.928.928,0,1,1,0,1.856H49.06A.928.928,0,0,1,48.131,31.572ZM80.378,75.5H74.641a6.9,6.9,0,0,0,2.223-5.069V64a6.935,6.935,0,0,0-5.387-6.749,7.616,7.616,0,1,0-9.514,0,6.941,6.941,0,0,0-5.148,4.981H41.91a7.771,7.771,0,0,0,.084-1.1v-7.3a7.744,7.744,0,0,0-6.278-7.591,8.516,8.516,0,1,0-10.205,0,7.743,7.743,0,0,0-6.278,7.591v7.3a7.638,7.638,0,0,0,.084,1.1H14.622a.929.929,0,0,0-.929.929V70a.929.929,0,0,0,.929.928H56.6A6.9,6.9,0,0,0,58.8,75.5H53.063a.929.929,0,0,0,0,1.857H80.378a.929.929,0,1,0,0-1.857ZM60.96,51.311a5.76,5.76,0,1,1,5.76,5.76A5.768,5.768,0,0,1,60.96,51.311ZM23.955,39.44A6.659,6.659,0,1,1,30.613,46.1,6.665,6.665,0,0,1,23.955,39.44ZM21.089,61.129v-7.3a5.883,5.883,0,0,1,5.876-5.876h7.3a5.882,5.882,0,0,1,5.875,5.876v7.3a5.862,5.862,0,0,1-.116,1.1H21.206A5.88,5.88,0,0,1,21.089,61.129ZM56.578,69.07H15.55V64.088H56.578ZM63.5,75.5a5.073,5.073,0,0,1-5.068-5.069V64A5.074,5.074,0,0,1,63.5,58.928h6.434A5.076,5.076,0,0,1,75.007,64v6.432a5.075,5.075,0,0,1-5.07,5.069Z"/></svg>