<svg xmlns="http://www.w3.org/2000/svg" width="80px" height="80px" version="1.1" viewBox="-5.0 -10.0 110.0 135.0">
 <g>
  <path d="m68.176 63.387c1.7266 0 3.125-1.4023 3.125-3.125v-9.5547c0-0.5625-0.19531-1.1055-0.55078-1.5391l-4.5508-5.6562c-0.47266-0.58203-1.1797-0.92188-1.9297-0.91797h-5.457v-1.9688c0-1.3633-1.1055-2.4688-2.4688-2.4688h-25.176c-1.3633 0.003906-2.4648 1.1094-2.4688 2.4688v19.637c0 1.7227 1.3984 3.125 3.125 3.125h2.2617-0.003907c-0.046875 0.23828-0.074219 0.48438-0.082031 0.72656-0.0625 1.4453 0.46484 2.8516 1.4609 3.8945 1 1.043 2.3828 1.6328 3.8242 1.6328 1.4453 0 2.8281-0.58984 3.8242-1.6328 1-1.043 1.5273-2.4492 1.4648-3.8945-0.007813-0.24219-0.035157-0.48828-0.074219-0.72656h11.457c-0.046875 0.23828-0.074219 0.48438-0.082031 0.72656-0.0625 1.4453 0.46484 2.8516 1.4609 3.8945 1 1.043 2.3828 1.6328 3.8242 1.6328 1.4453 0 2.8281-0.58984 3.8242-1.6328 1-1.043 1.5273-2.4492 1.4648-3.8945-0.007813-0.24219-0.035157-0.48828-0.074219-0.72656zm-3.9062-18.75c0.125 0 0.23828 0.058593 0.3125 0.15625l4.5625 5.6562c0.054688 0.066406 0.082031 0.15234 0.085938 0.23828v4.2617h-10.418v-10.273zm-25-4.418h8.9609v8.8438l-3.3438-2.1875c-0.6875-0.44141-1.5664-0.44141-2.25 0l-3.3555 2.1875zm-8.1133 0h6.0312v8.8438c0 0.76172 0.41797 1.4609 1.0859 1.8242 0.66797 0.36719 1.4805 0.33594 2.1211-0.074219l3.3555-2.1562 3.3438 2.1562c0.33594 0.21484 0.72656 0.33203 1.125 0.33203 0.36328 0.011719 0.72266-0.078125 1.043-0.25781 0.64844-0.375 1.0469-1.0742 1.0391-1.8242v-8.8008h6.0312c0.21094 0.003906 0.38281 0.17188 0.38672 0.38281v14.324h-25.938v-14.344c0.015625-0.20312 0.18359-0.35938 0.38672-0.36328zm8.125 27.082c-1.2969 0.003907-2.4727-0.77344-2.9727-1.9727s-0.22656-2.5781 0.69141-3.5c0.91406-0.91797 2.2969-1.1953 3.4961-0.69922 1.1992 0.49609 1.9844 1.668 1.9844 2.9648 0.003906 0.85156-0.32812 1.668-0.92578 2.2734-0.59766 0.60547-1.4141 0.94922-2.2617 0.95703zm4.4688-6c-0.94141-1.5586-2.6328-2.5156-4.457-2.5156s-3.5156 0.95703-4.4609 2.5156h-3.0078c-0.57812 0-1.043-0.46484-1.043-1.0391v-3.2109h38.438v3.2109c0 0.27344-0.10938 0.53906-0.30469 0.73438-0.19531 0.19531-0.46094 0.30469-0.73828 0.30469h-2.5508c-0.94141-1.5586-2.6328-2.5156-4.457-2.5156s-3.5156 0.95703-4.4609 2.5156zm17.406 6.0195v0.003907c-1.2969 0.003906-2.4727-0.77734-2.9727-1.9766-0.5-1.1953-0.22656-2.5781 0.69141-3.4961 0.91406-0.92187 2.2969-1.1992 3.4961-0.70312 1.1992 0.49609 1.9844 1.668 1.9844 2.9648 0 1.7695-1.4297 3.2031-3.1992 3.2109z" fill="#ffffff"/>
  <path d="m13.738 32.113h16.355c0.55078 0 1.082-0.21875 1.4727-0.60938s0.60938-0.92188 0.60938-1.4727v-12.043c0-0.78125-0.4375-1.4961-1.1328-1.8516l-8.1758-4.168h-0.003907c-0.59375-0.30469-1.3008-0.30469-1.8945 0l-8.1758 4.168c-0.69922 0.35547-1.1367 1.0703-1.1367 1.8516v12.043c0 1.1523 0.93359 2.082 2.082 2.082zm11.93-6.6953h-7.4922v-2.5h7.4883zm-7.4883 4.6133-0.003907-2.5312h7.4883v2.5312zm3.6953-16.238 8.1758 4.168v12.07h-2.3008v-7.1133c0-0.55469-0.21875-1.082-0.60938-1.4727-0.39062-0.39062-0.92188-0.61328-1.4727-0.61328h-7.4922c-1.1484 0-2.082 0.93359-2.082 2.0859v7.1367l-2.3555-0.003907v-12.062z" fill="#ffffff"/>
  <path d="m31.043 72.449-8.1758-4.168h-0.003907c-0.59375-0.30469-1.3008-0.30469-1.8945 0l-8.1758 4.168c-0.69922 0.35547-1.1367 1.0703-1.1367 1.8516v12.043c0 0.55078 0.21875 1.082 0.60938 1.4727s0.92188 0.60938 1.4727 0.60938h16.355c0.55078 0 1.082-0.21875 1.4727-0.60938s0.60938-0.92188 0.60938-1.4727v-12.043c0-0.78125-0.4375-1.4961-1.1328-1.8516zm-5.375 9.293-7.4922-0.003907v-2.5703h7.4883zm-7.4883 4.6055-0.003907-2.5234h7.4883v2.5195zm11.914-12.047v12.043h-2.3438v-7.1758c0-0.55469-0.21875-1.082-0.60938-1.4727-0.39062-0.39062-0.92188-0.61328-1.4727-0.61328h-7.4922c-1.1484 0-2.082 0.93359-2.082 2.0859v7.1367l-2.3555-0.003907v-12l8.1758-4.168 8.1758 4.168" fill="#ffffff"/>
  <path d="m87.207 16.137-8.1758-4.168c-0.59375-0.30469-1.3008-0.30469-1.8945 0l-8.1758 4.168h-0.003907c-0.69531 0.35547-1.1328 1.0703-1.1328 1.8516v12.043c0 0.55078 0.21875 1.082 0.60938 1.4727s0.92188 0.60938 1.4727 0.60938h16.355c0.55078 0 1.082-0.21875 1.4727-0.60938s0.60938-0.92188 0.60938-1.4727v-12.043c0-0.78125-0.4375-1.4961-1.1367-1.8516zm-5.375 9.2812h-7.4883v-2.5h7.4883zm-7.4883 4.6133v-2.5312h7.4883v2.5312zm11.918 0h-2.3438v-7.1133c0-0.55469-0.22266-1.082-0.61328-1.4727-0.39063-0.39062-0.91797-0.61328-1.4727-0.61328h-7.4883c-1.1523 0-2.082 0.93359-2.082 2.0859v7.1367l-2.3555-0.003907v-12.062l8.1758-4.168 8.1758 4.168z" fill="#ffffff"/>
  <path d="m87.207 72.449-8.1758-4.168c-0.59375-0.30469-1.3008-0.30469-1.8945 0l-8.1758 4.168h-0.003907c-0.69531 0.35547-1.1328 1.0703-1.1328 1.8516v12.043c0 0.55078 0.21875 1.082 0.60938 1.4727s0.92188 0.60938 1.4727 0.60938h16.355c0.55078 0 1.082-0.21875 1.4727-0.60938s0.60938-0.92188 0.60938-1.4727v-12.043c0-0.78125-0.4375-1.4961-1.1367-1.8516zm-5.375 9.293-7.4883-0.003907v-2.5703h7.4883zm-7.4883 4.6055v-2.5234h7.4883v2.5195zm11.918-12.047v12.043h-2.3438v-7.1758c0-0.55469-0.22266-1.082-0.61328-1.4727-0.39063-0.39062-0.91797-0.61328-1.4727-0.61328h-7.4883c-1.1523 0-2.082 0.93359-2.082 2.0859v7.1367l-2.3555-0.003907v-12l8.1758-4.168 8.1758 4.168" fill="#ffffff"/>
  <path d="m24.699 42.355h-3.8672v-5.8242c0-0.57422-0.46484-1.043-1.0391-1.043-0.57812 0-1.043 0.46875-1.043 1.043v5.8242c0 0.55078 0.21875 1.082 0.60938 1.4727s0.92188 0.60938 1.4727 0.60938h3.875c0.57812 0 1.043-0.46484 1.043-1.043 0-0.57422-0.46484-1.0391-1.043-1.0391z" fill="#ffffff"/>
  <path d="m24.699 55.562h-3.8672c-1.1484 0-2.082 0.93359-2.082 2.082v5.8242c0 0.57422 0.46484 1.043 1.043 1.043 0.57422 0 1.0391-0.46875 1.0391-1.043v-5.8242h3.875c0.57812 0 1.043-0.46484 1.043-1.0391 0-0.57812-0.46484-1.043-1.043-1.043z" fill="#ffffff"/>
  <path d="m75.301 44.438h3.8672c0.55078 0 1.082-0.21875 1.4727-0.60938s0.60938-0.92188 0.60938-1.4727v-5.8242c0-0.57422-0.46484-1.043-1.043-1.043-0.57422 0-1.0391 0.46875-1.0391 1.043v5.8242h-3.8672c-0.57422 0-1.0391 0.46484-1.0391 1.0391 0 0.57812 0.46484 1.043 1.0391 1.043z" fill="#ffffff"/>
  <path d="m75.301 57.645h3.8672v5.8242c0 0.57422 0.46484 1.043 1.0391 1.043 0.57812 0 1.043-0.46875 1.043-1.043v-5.8242c0-0.55078-0.21875-1.082-0.60938-1.4727s-0.92188-0.60938-1.4727-0.60938h-3.8672c-0.57422 0-1.0391 0.46484-1.0391 1.043 0 0.57422 0.46484 1.0391 1.0391 1.0391z" fill="#ffffff"/>
 </g>
</svg>