<svg width="80px" height="80px" xmlns="http://www.w3.org/2000/svg" version="1.1" viewBox="-5.0 -10.0 110.0 135.0">
 <path d="m53.789 63.938 0.085938 0.32422h0.003906c0.29297 1.0977 0.13672 2.2695-0.4375 3.2539-0.015625 0.03125-0.035156 0.058594-0.054687 0.085937-0.57031 0.94531-1.4805 1.6289-2.543 1.9141l-8.3672 2.2422h-0.003906c-1.0977 0.29297-2.2656 0.13672-3.2461-0.43359-0.98828-0.56641-1.707-1.5-2-2.5977l-0.67578-2.5195c-1.8672-0.10547-3.7148-0.40234-5.5195-0.88672-1.8086-0.48828-3.5664-1.1562-5.2422-2l-1.8477 1.8477h0.003906c-0.80859 0.80469-1.9023 1.2578-3.0469 1.2539v-0.007813c-1.1367 0.003907-2.2266-0.44531-3.0352-1.2461l-6.125-6.125v-0.003907c-1.6719-1.6758-1.6719-4.3906 0-6.0703l1.8438-1.8438c-0.33984-0.67578-0.65234-1.3672-0.9375-2.0859-0.82812-2.0547-1.4062-4.2031-1.7188-6.3984-0.10547-0.75391-0.18359-1.5117-0.22656-2.2734l-2.5195-0.67578h0.003906c-2.2891-0.61719-3.6445-2.9648-3.0391-5.2539l2.2422-8.3711h0.003906c0.61719-2.2852 2.9648-3.6406 5.2539-3.0352l2.5234 0.67578h-0.003907c2.0625-3.1367 4.7422-5.8203 7.8789-7.8828l-0.67578-2.5234c-0.60547-2.2891 0.75391-4.6367 3.0391-5.2539 2.7891-0.73438 5.5781-1.5352 8.3711-2.2422 2.2891-0.60547 4.6328 0.75 5.25 3.0352l0.67578 2.5195c1.8633 0.10547 3.7148 0.40234 5.5156 0.88672 1.8125 0.48438 3.5703 1.1562 5.2422 2l1.8477-1.8477c1.5703-1.5586 4.0703-1.6719 5.7773-0.26172 0.55469 0.48438 0.625 1.3281 0.15234 1.8945-0.47266 0.57031-1.3125 0.65625-1.8906 0.19531-0.30469-0.25-0.6875-0.375-1.082-0.35547-0.38672 0.019531-0.75391 0.18359-1.0273 0.45703l-2.5547 2.5547c-0.42969 0.42969-1.0898 0.52344-1.6211 0.23047-3.4805-1.918-7.3711-2.9727-11.348-3.0742-0.64062 0.035157-1.2148-0.38672-1.3828-1.0078l-0.91797-3.4102c-0.011718-0.039063-0.023437-0.082032-0.035156-0.125h0.003906c-0.24219-0.78516-1.0508-1.2539-1.8516-1.0703-0.039062 0.011719-0.082031 0.023438-0.125 0.03125l-8.2266 2.1992v0.003906c-0.039063 0.011719-0.082032 0.023438-0.12109 0.03125-0.78906 0.24219-1.2539 1.0508-1.0703 1.8516 0.011719 0.039062 0.023438 0.082031 0.03125 0.125l0.90625 3.3789c0.17578 0.59375-0.070312 1.2344-0.60156 1.5547-3.4258 2.0703-6.2969 4.9414-8.3633 8.3672-0.3125 0.52734-0.93359 0.78125-1.5234 0.625l-3.4922-0.93359v-0.003906c-0.83594-0.21875-1.6953 0.27344-1.9219 1.1094l-2.2422 8.3711c-0.22266 0.83594 0.26953 1.6953 1.1055 1.9219l3.4844 0.93359c0.58594 0.15625 0.99609 0.67969 1.0117 1.2852 0.082032 3.9805 1.1211 7.8828 3.0273 11.375 0.33984 0.53906 0.26172 1.2422-0.1875 1.6914l-2.5547 2.5547c-0.60547 0.61328-0.60547 1.6016 0 2.2148l6.1328 6.125c0.28906 0.29297 0.6875 0.46094 1.0977 0.46094v-0.007813 0.003906c0.41797 0 0.81641-0.16406 1.1094-0.45703l2.5547-2.5547c0.42969-0.42578 1.0898-0.51953 1.6172-0.23047 1.7539 0.96484 3.6133 1.7148 5.5469 2.2344 1.8906 0.51172 3.8398 0.79297 5.8008 0.83984 0.64062-0.03125 1.2148 0.38672 1.3828 1.0078l0.93359 3.4844c0.10938 0.40234 0.37109 0.74609 0.73047 0.95312 0.36328 0.20703 0.78906 0.26172 1.1914 0.15234l8.3672-2.2422c0.37891-0.10156 0.70703-0.34375 0.91797-0.67578 0.011719-0.019531 0.019531-0.039062 0.03125-0.054687 0.21094-0.35938 0.26562-0.78906 0.15625-1.1875l-0.92578-3.4492h0.003906c-0.09375-0.32422-0.070312-0.66797 0.074219-0.97266l-4.6797-4.6797c-3.6133 0.92969-7.4414 0.48438-10.742-1.2461-3.3047-1.7305-5.8477-4.625-7.1406-8.1211-1.293-3.5-1.2422-7.3516 0.14453-10.812 0.15234-0.44531 0.52344-0.78125 0.98047-0.88672s0.9375 0.03125 1.2734 0.36328l2.0078 2.0078 0.3125-4.0195-0.003906 0.003906c0.007812-0.11719 0.03125-0.23438 0.070312-0.34766l0.023438-0.054688h-0.003907c0.0625-0.15234 0.14844-0.29297 0.25391-0.41406v-0.003907l0.085937-0.085937 0.007813-0.003906 0.003906-0.003907c0.12109-0.10938 0.25781-0.19531 0.41016-0.25391l0.027344-0.011719 0.03125-0.011718v0.003906c0.11328-0.039063 0.22656-0.0625 0.34375-0.070313l4.0195-0.3125-2.0078-2.0078c-0.33203-0.33203-0.46875-0.8125-0.36328-1.2695 0.10547-0.45703 0.4375-0.82813 0.88281-0.98438 3.4648-1.3906 7.3203-1.4492 10.82-0.15625 3.5039 1.2891 6.4023 3.8359 8.1328 7.1406 1.7344 3.3047 2.1758 7.1367 1.2422 10.75l6.5117 6.5117 1.2695 0.33984c0.83594 0.22266 1.6953-0.27344 1.9219-1.1055l2.2422-8.3672v-0.003906c0.21875-0.83594-0.27344-1.6914-1.1094-1.918l-3.4844-0.93359c-0.58594-0.15625-0.99609-0.68359-1.0078-1.2891-0.085938-3.9766-1.125-7.8789-3.0312-11.375-0.33984-0.53516-0.26172-1.2383 0.1875-1.6875l2.5547-2.5547c0.60547-0.61328 0.60547-1.6016 0-2.2148l-1.5-1.5c-0.53516-0.53125-0.53906-1.3945-0.007813-1.9258 0.53125-0.53516 1.3945-0.53906 1.9297-0.007812l1.5 1.5c1.6719 1.6797 1.6719 4.3945 0 6.0742l-1.8438 1.8438c0.33984 0.67578 0.65234 1.3672 0.9375 2.0859v-0.003906c0.82812 2.0586 1.4062 4.207 1.7188 6.4023 0.10547 0.75391 0.18359 1.5117 0.22656 2.2734l2.5195 0.67578c2.2891 0.61719 3.6484 2.9688 3.043 5.2578l-2.2461 8.3672c-0.29297 1.0977-1.0156 2.0352-2 2.6016-0.28125 0.16016-0.58203 0.29297-0.89453 0.38672l10.215 10.219c2.7188-0.69922 5.5781-0.62891 8.2578 0.19922 0.35156 0.10156 0.64844 0.33984 0.82422 0.66406 0.17578 0.32031 0.21094 0.69922 0.10156 1.0508-0.10938 0.35156-0.35547 0.64062-0.67969 0.80859-0.32813 0.16797-0.70703 0.19531-1.0547 0.078124-2.3828-0.74609-4.9375-0.75-7.3242-0.015624-0.51172 0.21094-1.0977 0.097656-1.4922-0.29297l-20.777-20.777c-0.39062-0.39062-0.50391-0.98047-0.29297-1.4922 0.65625-2.1289 0.72656-4.3984 0.19922-6.5664-1.582-6.4961-8.0547-10.547-14.59-9.1328l5.9727 5.9727v0.003906c0.30078 0.29688 0.44141 0.71484 0.39063 1.1289l-0.53516 6.9062c-0.007812 0.12109-0.03125 0.23437-0.070312 0.34766l-0.023438 0.054687 0.003907 0.003907c-0.058594 0.14844-0.14453 0.28906-0.25391 0.41016v0.003906l-0.042969 0.042969-0.011718 0.007812-0.035156 0.035157v0.003906c-0.12109 0.10938-0.26172 0.19531-0.41406 0.25391l-0.054687 0.023438c-0.11328 0.039062-0.23047 0.058593-0.34766 0.066406l-6.9258 0.55078c-0.41797 0.050781-0.83594-0.089844-1.1328-0.38672l-5.9727-5.9727v-0.003906c-0.35938 1.668-0.37109 3.3945-0.03125 5.0664 0.96094 4.6758 4.5273 8.3828 9.1641 9.5234 2.1641 0.52734 4.4336 0.45703 6.5664-0.19922 0.51172-0.21484 1.0977-0.097657 1.4922 0.29297l20.773 20.785c0.39062 0.39062 0.50781 0.97656 0.29297 1.4883-0.65625 2.1328-0.72266 4.3984-0.19922 6.5664 1.1406 4.6367 4.8477 8.2031 9.5234 9.1641 1.6719 0.33984 3.3984 0.32812 5.0664-0.03125l-5.9727-5.9727c-0.29687-0.29688-0.44141-0.71484-0.39062-1.1328l0.53516-6.9062c0.007812-0.11719 0.03125-0.23438 0.070312-0.34766l0.023438-0.054688h-0.003906c0.0625-0.15234 0.14844-0.29297 0.25781-0.41406l0.089844-0.089844c0.12109-0.10938 0.25781-0.19531 0.41016-0.25391l0.054688-0.023438h0.003906c0.10938-0.035156 0.22656-0.058593 0.34375-0.066406l6.9062-0.53516c0.41797-0.054688 0.83594 0.089843 1.1328 0.38672l5.9961 5.957c0.34375-1.6016 0.36719-3.2539 0.070312-4.8633-0.42578-2.3125-1.5078-4.4531-3.1172-6.1641-0.51562-0.54688-0.48828-1.4102 0.058594-1.9258 0.54688-0.51172 1.4062-0.48828 1.9219 0.058594 1.957 2.0938 3.2773 4.6992 3.8086 7.5156 0.52734 2.8164 0.24219 5.7266-0.82031 8.3867-0.15234 0.44531-0.52734 0.77734-0.98438 0.88281-0.45703 0.10547-0.9375-0.03125-1.2695-0.36328l-7.1289-7.1289-5.1953 0.39844-0.39844 5.1914 7.1289 7.1289c0.53125 0.53125 0.53125 1.3945 0 1.9297-0.14844 0.14453-0.32422 0.25781-0.52344 0.32422-3.4609 1.3906-7.3164 1.4414-10.82 0.15234-3.5-1.293-6.3945-3.8398-8.125-7.1445-1.7305-3.3086-2.1719-7.1367-1.2383-10.75zm-18.617-29.426-0.39844 5.1953 2.582 2.582 5.1953-0.39844 0.39844-5.1953-2.5859-2.582z" fill-rule="evenodd"/>
</svg>