<svg xmlns="http://www.w3.org/2000/svg" width="80px" height="80px" version="1.1" viewBox="-5.0 -10.0 110.0 135.0">
 <path d="m87.996 81.477c1.5195 0 2.8984-0.61719 3.8906-1.6133 0.99609-0.99609 1.6133-2.3711 1.6133-3.8906 0-1.4648-0.57031-2.793-1.4961-3.7773-0.93359-0.98828-2.2305-1.6367-3.6758-1.7188-0.82422-0.042968-1.457-0.75-1.4141-1.5742l0.015626-0.32422c-0.007813-1.2305-0.50391-2.3438-1.3008-3.1406-0.80859-0.80469-1.9219-1.3008-3.1484-1.3008-0.26172 0-0.5 0.019531-0.70703 0.050781-0.21094 0.03125-0.44141 0.089844-0.67578 0.16797-0.78516 0.25781-1.6328-0.16797-1.8945-0.95703l-0.03125-0.10938c-0.52734-1.6992-1.5898-3.168-2.9844-4.2031-1.3789-1.0234-3.0898-1.6289-4.9492-1.6289-2.293 0-4.375 0.92969-5.875 2.4336l-0.074219 0.070313c-1.457 1.4961-2.3594 3.5469-2.3594 5.8047 0 0.48828 0.042968 0.96094 0.11719 1.4102 0.078125 0.46484 0.19922 0.92188 0.35547 1.3594 0.27344 0.78125-0.13281 1.6367-0.91406 1.9102-0.125 0.042969-0.25 0.070313-0.375 0.082032-1.3242 0.19531-2.4961 0.86719-3.3359 1.8281-0.83984 0.96094-1.3555 2.2305-1.3555 3.6211 0 1.5195 0.61719 2.8984 1.6133 3.8906 0.99609 0.99609 2.3711 1.6133 3.8906 1.6133h25.07zm-31.344 0.23828c-2.4141 1.3047-4.9883 2.3438-7.6836 3.0742-3.0117 0.81641-6.1719 1.25-9.4297 1.25-9.9492 0-18.961-4.0352-25.484-10.559-6.5234-6.5195-10.559-15.531-10.559-25.484s4.0352-18.965 10.559-25.484c6.5195-6.5234 15.531-10.559 25.484-10.559 9.9492 0 18.961 4.0352 25.484 10.559 6.5234 6.5195 10.559 15.531 10.559 25.484 0 1.043-0.050781 2.125-0.14844 3.2344-0.054688 0.63672-0.12891 1.2852-0.22266 1.9414 0.99609 0.375 1.9219 0.88281 2.7617 1.5078 1.5586 1.1562 2.8125 2.7109 3.6094 4.5078 0.30859-0.039062 0.60938-0.058594 0.90234-0.058594 2.0547 0 3.918 0.83203 5.2656 2.1797 1.1484 1.1523 1.9219 2.6758 2.1289 4.3672 1.6836 0.37891 3.1758 1.2539 4.3125 2.4648 1.4375 1.5234 2.3164 3.5742 2.3164 5.8281 0 2.3477-0.95312 4.4766-2.4922 6.0117-1.5391 1.5391-3.668 2.4922-6.0117 2.4922h-25.07c-2.3438 0-4.4766-0.95312-6.0117-2.4922l-0.25781-0.26953zm15.625-27.211c0.066406-0.49609 0.12109-1.0039 0.16797-1.5273 0.042969-0.47656 0.078126-0.96875 0.10156-1.4766h-15.32c-0.1875 5.7891-1.457 11.551-3.8086 16.949 1.2383 0.38672 2.4766 0.82031 3.7109 1.3086 0.85938-0.80078 1.8789-1.4258 3.0117-1.8164l-0.046875-0.26562c-0.10938-0.62891-0.16406-1.2695-0.16406-1.9141 0-3.0742 1.2344-5.8672 3.2305-7.9062l0.082032-0.089844c2.0469-2.0469 4.875-3.3125 7.9961-3.3125 0.35156 0 0.69922 0.015625 1.043 0.046875zm-16.996 17.75c-1.0547-0.39844-2.1094-0.75391-3.1602-1.0742-1.4922 2.8867-3.3086 5.6484-5.4492 8.2305-0.96875 1.168-2.0039 2.3008-3.1055 3.3867 1.582-0.19141 3.1328-0.49609 4.6328-0.90234 2.4062-0.65234 4.7031-1.5664 6.8516-2.7109-0.40625-0.99219-0.62891-2.0781-0.62891-3.2109 0-1.332 0.30859-2.5977 0.85938-3.7188zm17.266-23.754c-0.36719-8.2188-3.7344-15.656-9.0352-21.238-3.3633 1.8125-6.7266 3.2422-10.09 4.293 2.3516 5.3984 3.6211 11.156 3.8086 16.945zm-66.012 0h15.32c0.1875-5.7891 1.457-11.547 3.8086-16.945-3.3672-1.0469-6.7305-2.4805-10.094-4.2891-5.2969 5.5859-8.668 13.02-9.0352 21.238zm18.32 0h29.375c-0.19141-5.5195-1.4336-11.004-3.7266-16.133-3.6523 0.89844-7.3047 1.3477-10.961 1.3477-3.6562-0.003906-7.3086-0.45312-10.961-1.3477-2.293 5.1289-3.5352 10.617-3.7266 16.133zm29.375 3h-29.375c0.19141 5.5195 1.4336 11.004 3.7266 16.137 2.5664-0.62891 5.1367-1.0391 7.7031-1.2266 4.7422-0.34766 9.4805 0.0625 14.219 1.2266 2.293-5.1289 3.5352-10.617 3.7266-16.137zm-32.375 0h-15.32c0.36719 8.2188 3.7344 15.656 9.0352 21.238 3.3594-1.8125 6.7266-3.2422 10.094-4.2891-2.3516-5.3984-3.6211-11.16-3.8086-16.949zm27.297 18.891c-4.2188-0.97266-8.4375-1.3047-12.656-0.99609-2.1836 0.16016-4.3711 0.49219-6.5625 0.99609 1.332 2.4883 2.9297 4.8711 4.7852 7.1094 1.4453 1.7461 3.0547 3.4023 4.8242 4.9531 1.7656-1.5508 3.375-3.2109 4.8242-4.957 1.8555-2.2383 3.4531-4.6211 4.7852-7.1094zm-22.188 0.79297c-3.0352 0.91406-6.0742 2.1602-9.1133 3.7383 4.8516 4.2266 10.945 7.0625 17.664 7.875-1.1016-1.0859-2.1328-2.2188-3.1016-3.3867-2.1406-2.582-3.957-5.3438-5.4492-8.2305zm34.273-46.105c-4.8516-4.2266-10.945-7.0625-17.664-7.875 1.1016 1.0859 2.1367 2.2188 3.1016 3.3867 2.1406 2.582 3.957 5.3438 5.4492 8.2305 3.0352-0.91797 6.0742-2.1602 9.1133-3.7383zm-43.387 0c3.043 1.5781 6.0781 2.8242 9.1133 3.7383 1.4922-2.8867 3.3086-5.6523 5.4492-8.2305 0.96875-1.1641 2-2.2969 3.1016-3.3867-6.7188 0.81641-12.816 3.6523-17.668 7.8789zm12.086 4.5312c3.207 0.74219 6.4102 1.1133 9.6094 1.1133 3.1992-0.003906 6.4023-0.375 9.6094-1.1133-1.332-2.4883-2.9297-4.8711-4.7852-7.1094-1.4492-1.7461-3.0586-3.4062-4.8242-4.957-1.7656 1.5508-3.375 3.2109-4.8203 4.9531-1.8594 2.2383-3.4531 4.6211-4.7891 7.1133z" fill="#ffffff"/>
</svg>