<svg width="50px" height="50px" xmlns="http://www.w3.org/2000/svg" version="1.1" viewBox="-5.0 -10.0 110.0 135.0">
 <path d="m26.762 88.211c0.66797 1.1484 1.875 1.7891 3.1172 1.7891 0.60938 0 1.2266-0.15625 1.7891-0.48047l6.6055-3.8125c0.83203-0.48047 1.4258-1.2578 1.6758-2.1914 0.16797-0.62891 0.15625-1.2695-0.007813-1.875 0.37891-0.13672 0.67578-0.18359 0.85547-0.17188l10.988 0.69922c0.35547 0.023437 0.70703 0.050781 1.0547 0.074219 2.2852 0.17187 4.6445 0.35156 7.0938-0.72266 7.0703-3.1055 12.723-5.6797 20.844-9.4883 2.1016-0.98438 3.332-3.1914 3.1328-5.6211-0.19141-2.3398-1.6914-4.2539-3.918-5-1.9805-0.66406-4.1328-0.58594-6.0664 0.21875l-9.0898 3.7969c-0.39063-1.2031-1.0664-2.3047-1.9805-3.1875-1.3906-1.3398-3.1836-2.0273-5.0547-1.9453l-8.6367 0.37891c-6.6367-2.6523-13.391-1.9844-20.109 1.9688-1.0898-1.3359-3.0273-1.7266-4.5781-0.83984l-6.6133 3.8203c-0.82422 0.48047-1.418 1.2539-1.6641 2.1797-0.25 0.92969-0.12109 1.8984 0.35938 2.7227zm21.312-23.805 0.40234 0.16797 9.4961-0.41797c1.0234-0.046875 1.7617 0.44531 2.1953 0.86719 0.73828 0.71484 1.1797 1.7617 1.1797 2.8125-0.035156 0.007812-0.097656 0.011718-0.18359 0.015624l-11.035 0.40625c-1.0664 0.039063-1.9023 0.9375-1.8633 2.0039 0.039063 1.043 0.89844 1.8633 1.9336 1.8633h0.074219l11.027-0.40625c1.1055-0.035156 1.9844-0.375 2.6914-1.0312 0.33203-0.30859 0.59766-0.66406 0.80078-1.0508l10.625-4.4375c1.0664-0.44531 2.2539-0.48828 3.3438-0.12109 0.75781 0.25391 1.2266 0.85547 1.293 1.6484 0.050781 0.63672-0.16016 1.4453-0.91797 1.8008-8.0898 3.793-13.715 6.3555-20.758 9.4492-1.5625 0.6875-3.2695 0.55859-5.2461 0.40625-0.36328-0.027343-0.73437-0.054687-1.1055-0.078124l-10.984-0.69922c-1.082-0.070313-2.1367 0.25-2.9453 0.60547l-7.0703-12.246c5.8086-3.4258 11.398-3.9336 17.047-1.5625zm-21.902 0.88672 0.53906 0.92969c0.011718 0.019532 0.023437 0.035156 0.03125 0.054688l9.3594 16.215-6.1289 3.5352-9.9258-17.199zm19.117-24.863c0.042969 0.070312 0.082032 0.13672 0.11719 0.19922-0.29297 0.33984-0.47266 0.78125-0.47266 1.2656v5.8242c0 1.6953 1.1758 3.1172 2.75 3.5039l1.457 3.0977c0.86719 1.8438 2.457 2.9453 4.2461 2.9453h3.6406c1.8125 0 3.3594-1.0703 4.2461-2.9453l1.457-3.0977c1.5781-0.38672 2.75-1.8125 2.75-3.5039v-5.8242c0-0.48438-0.17969-0.92578-0.47266-1.2656 0.035157-0.0625 0.078126-0.12891 0.12109-0.19922 0.79297-1.2969 1.5352-2.3711 2.25-3.4102 2.2383-3.2422 4.0078-5.8047 4.0078-10.836 0-4.2852-1.6875-8.3398-4.7539-11.41-3.0703-3.0781-7.1289-4.7695-11.426-4.7695-8.9219 0-16.18 7.2578-16.18 16.18 0 5.0312 1.7695 7.5898 4.0078 10.836 0.71875 1.0391 1.457 2.1094 2.25 3.4102zm16.324 3.3984v3.6289h-12.805v-3.6289zm-4.5859 9.5664h-3.6406c-0.35156 0-0.61719-0.45312-0.74219-0.72266l-0.63281-1.3477h6.3945l-0.62891 1.3398c-0.10547 0.21875-0.38672 0.72656-0.74609 0.72656zm-1.8203-39.52c6.7852 0 12.309 5.5234 12.309 12.309 0 3.8242-1.25 5.6328-3.3203 8.6328-0.71094 1.0312-1.5195 2.1992-2.3672 3.5898-0.34766 0.56641-0.60547 1.0664-0.79297 1.5469h-3.8906v-8.7812h0.80078c2.9688 0 5.3828-2.4141 5.3828-5.3828 0-1.6133-0.71484-3.125-1.9648-4.1523-0.82422-0.67969-2.0469-0.55859-2.7227 0.26562-0.67969 0.82422-0.55859 2.0469 0.26562 2.7227 0.35156 0.28516 0.55078 0.71094 0.55078 1.1602 0 0.83203-0.67969 1.5117-1.5117 1.5117h-5.6719c-0.83203 0-1.5117-0.67969-1.5117-1.5117 0-0.44922 0.19922-0.87109 0.55078-1.1602 0.82422-0.67969 0.94531-1.8984 0.26562-2.7227-0.67969-0.82422-1.8984-0.94531-2.7227-0.26562-1.2461 1.0234-1.9648 2.5391-1.9648 4.1523 0 2.9688 2.4141 5.3828 5.3828 5.3828h1.0039v8.7812h-3.8906c-0.1875-0.48047-0.44531-0.98047-0.79297-1.5469-0.84766-1.3906-1.6562-2.5586-2.3672-3.5938-2.0703-3-3.3203-4.8125-3.3203-8.6328 0-6.7852 5.5234-12.309 12.309-12.309zm21.32 10.375h3.1211c1.0703 0 1.9336 0.86719 1.9336 1.9336 0 1.0703-0.86719 1.9336-1.9336 1.9336h-3.1211c-1.0703 0-1.9336-0.86719-1.9336-1.9336 0-1.0703 0.86719-1.9336 1.9336-1.9336zm0.8125 12.484c0.92578 0.53516 1.2422 1.7188 0.70703 2.6445-0.35938 0.62109-1.0078 0.96484-1.6758 0.96484-0.32812 0-0.66016-0.085938-0.96875-0.26172l-2.7031-1.5625c-0.92578-0.53516-1.2422-1.7188-0.70703-2.6445 0.53516-0.92578 1.7188-1.2422 2.6445-0.70703l2.7031 1.5625zm-5.3477-20.242c-0.53516-0.92578-0.21875-2.1094 0.71094-2.6445l2.7031-1.5586c0.92578-0.53516 2.1094-0.21875 2.6445 0.71094 0.53516 0.92578 0.21875 2.1094-0.71094 2.6445l-2.7031 1.5586c-0.30469 0.17578-0.63672 0.25781-0.96484 0.25781-0.66797 0-1.3203-0.34766-1.6797-0.96875zm-43.168 9.6953c0-1.0703 0.86719-1.9336 1.9336-1.9336h3.1211c1.0703 0 1.9336 0.86719 1.9336 1.9336 0 1.0703-0.86719 1.9336-1.9336 1.9336h-3.1211c-1.0703 0-1.9336-0.86719-1.9336-1.9336zm9.5898 9.6914c0.53516 0.92578 0.21875 2.1094-0.70703 2.6445l-2.707 1.5625c-0.30469 0.17578-0.63672 0.26172-0.96484 0.26172-0.66797 0-1.3203-0.34766-1.6758-0.96875-0.53516-0.92578-0.21875-2.1094 0.70703-2.6445l2.707-1.5625c0.92578-0.53516 2.1094-0.21875 2.6445 0.70703zm-6.0586-22.879c0.53516-0.92578 1.7188-1.2461 2.6445-0.71094l2.707 1.5586c0.92578 0.53516 1.2461 1.7188 0.71094 2.6445-0.35938 0.62109-1.0078 0.96875-1.6797 0.96875-0.32812 0-0.66016-0.082032-0.96484-0.25781l-2.707-1.5586c-0.92578-0.53125-1.2461-1.7188-0.71094-2.6445z"/>
</svg>