<svg width="80px" height="80px" xmlns="http://www.w3.org/2000/svg" version="1.1" viewBox="-5.0 -10.0 110.0 135.0">
 <path d="m14.582 75.105c0.42188-0.23047 0.93359-0.22266 1.3477 0.023437 0.41406 0.24609 0.66797 0.69141 0.67187 1.1719v6c0.003907 0.63672 0.51953 1.1562 1.1562 1.1602h6c0.48438-0.003907 0.92969 0.25 1.1758 0.66406s0.25781 0.92969 0.027344 1.3516c-0.15234 0.3125-0.26953 0.63672-0.34766 0.97266-0.35547 1.5 0.039063 3.0781 1.0586 4.2305 1.0195 1.1523 2.5352 1.7422 4.0664 1.5742 1.5273-0.16797 2.8828-1.0703 3.6289-2.418 0.74219-1.3477 0.78516-2.9727 0.11328-4.3594-0.23047-0.42187-0.22266-0.9375 0.023437-1.3516 0.25-0.41406 0.69531-0.66797 1.1758-0.66406h6c0.63281-0.011719 1.1445-0.52734 1.1445-1.1602v-22.91c0-0.63672-0.51953-1.1562-1.1562-1.1562h-6c-0.48047 0-0.92969-0.25391-1.1758-0.66797-0.24609-0.41406-0.25391-0.92969-0.023438-1.3516 0.66406-1.3828 0.61719-3.0039-0.12891-4.3438-0.74219-1.3438-2.0938-2.2422-3.6172-2.4062-1.5273-0.16797-3.0391 0.41406-4.0586 1.5625-1.0156 1.1484-1.4141 2.7188-1.0664 4.2148 0.082032 0.33594 0.19531 0.66016 0.34766 0.97266 0.23047 0.42188 0.22266 0.9375-0.023437 1.3516-0.24609 0.41406-0.69531 0.66797-1.1758 0.66797h-6c-0.63281 0.007813-1.1445 0.52344-1.1445 1.1562v6c-0.003906 0.75391-0.61328 1.3633-1.3672 1.3633-0.22656 0-0.45312-0.058594-0.65234-0.16797-0.3125-0.14844-0.63672-0.26563-0.97266-0.34766-1.4062-0.32812-2.8867 0.003907-4.0195 0.90234-1.1289 0.89844-1.7891 2.2617-1.7891 3.707 0 1.4453 0.66016 2.8086 1.7891 3.707 1.1328 0.89844 2.6133 1.2305 4.0195 0.90234 0.33594-0.082031 0.66016-0.19531 0.97266-0.34766zm72.941-36.66c-0.66016 0.35938-1.4844 0.11719-1.8438-0.54297-0.35938-0.66016-0.11328-1.4844 0.54297-1.8438l6.707-3.6445c0.65625-0.33594 1.4609-0.089843 1.8164 0.55859 0.35156 0.64844 0.125 1.457-0.51562 1.8281zm-49.441-2.3867h0.003907c0.65625 0.35938 0.90234 1.1836 0.54297 1.8438s-1.1875 0.90234-1.8438 0.54297l-6.7109-3.6445c-0.32422-0.16797-0.57031-0.46094-0.67578-0.80859-0.10938-0.35156-0.070313-0.73047 0.10547-1.0508 0.17578-0.32422 0.47266-0.55859 0.82422-0.66016 0.35156-0.097656 0.73047-0.050781 1.0469 0.13281zm43.352-12.32c-0.49219 0.56641-1.3516 0.62891-1.918 0.13672s-0.62891-1.3477-0.13672-1.918l4.9453-5.707-0.003907 0.003906c0.49219-0.57031 1.3516-0.63281 1.918-0.14062 0.57031 0.49219 0.63281 1.3516 0.14062 1.918zm-17.914-8.6602c0 0.75391-0.61328 1.3672-1.3672 1.3672-0.75 0-1.3633-0.61328-1.3633-1.3672v-8.7148c0-0.75391 0.61328-1.3633 1.3633-1.3633 0.75391 0 1.3672 0.60938 1.3672 1.3633zm-18.59 6.8789c0.49219 0.57031 0.42969 1.4258-0.13672 1.918-0.56641 0.49219-1.4258 0.42969-1.918-0.13672l-4.9453-5.707c-0.49219-0.56641-0.42969-1.4258 0.14062-1.918 0.56641-0.49219 1.4258-0.42969 1.9141 0.14062l4.9453 5.707zm20.039 39.699 0.003906-17.121c-2.668-3.7227-1.3828-5.1797-0.03125-6.6992 0.63672-0.72266 1.3008-1.4766 0.125-3.5234h-0.003906c-0.17969-0.3125-0.22656-0.68359-0.13281-1.0312 0.09375-0.35156 0.32031-0.64844 0.63281-0.82812s0.68359-0.22656 1.0352-0.13281c0.34766 0.097657 0.64062 0.32422 0.82031 0.63672 2.1523 3.7383 0.82422 5.2422-0.44531 6.6758-0.63281 0.71484-1.2305 1.3984 0.40625 3.5859 0.20703 0.24609 0.32031 0.55469 0.32031 0.875v17.562h2.8047l0.003906-2.5703c0-0.54688 0.32031-1.0391 0.82031-1.2539 5.3555-2.7852 9.1523-7.8555 10.316-13.777 1.168-5.9258-0.42578-12.055-4.3281-16.66-0.23828-0.27734-0.35547-0.63672-0.32812-0.99609 0.03125-0.36328 0.20312-0.69922 0.48047-0.93359s0.63672-0.34766 0.99609-0.31641c0.36328 0.03125 0.69531 0.20703 0.92969 0.48828 4.3477 5.1367 6.1758 11.953 4.9844 18.578s-5.2773 12.375-11.145 15.68v1.7656h1.8594l-0.003906-0.003906c0.75391 0 1.3633 0.61328 1.3633 1.3633v6.7812c0 0.75391-0.60938 1.3633-1.3633 1.3633h-2.7109c-0.78516 1.8594-2.0547 3.4727-3.6797 4.668-3.8867 2.8711-9.1953 2.8711-13.082 0-1.6289-1.1992-2.9023-2.8125-3.6836-4.6758h-2.7148c-0.75391 0-1.3633-0.60547-1.3633-1.3555v-6.7812c0-0.75 0.60938-1.3633 1.3633-1.3633h1.8594l-0.003906-1.7617c-5.2695-2.9727-9.125-7.9375-10.707-13.777-1.5781-5.8438-0.74609-12.074 2.3086-17.297 3.0547-5.2227 8.0781-9 13.941-10.488 5.8672-1.4844 12.082-0.55469 17.258 2.582 0.62109 0.39844 0.80859 1.2227 0.42188 1.8516-0.38281 0.62891-1.1992 0.83984-1.8398 0.46875-5.1055-3.0898-11.336-3.7227-16.961-1.7188-5.6211 2.0078-10.047 6.4336-12.047 12.062-2 5.625-1.3594 11.852 1.7383 16.957 1.8867 3.0977 4.582 5.6211 7.793 7.3008 0.5 0.21484 0.82422 0.70703 0.82422 1.2539v2.5742h2.8047v-17.574c0-0.32031 0.11328-0.63281 0.32031-0.875 1.6367-2.1875 1.0391-2.8672 0.40625-3.5859-1.2695-1.4336-2.6016-2.9375-0.44531-6.6758 0.375-0.64844 1.2031-0.87109 1.8516-0.5 0.65234 0.375 0.875 1.2031 0.50391 1.8516-1.1797 2.0469-0.51172 2.8008 0.125 3.5234 1.3516 1.5273 2.6367 2.9805-0.03125 6.6992v17.129zm4.3633 9.5h-14.359c0.57422 0.96875 1.3398 1.8125 2.25 2.4805 2.9336 2.1602 6.9297 2.1602 9.8633 0 0.91016-0.66797 1.6758-1.5117 2.25-2.4805zm4.3906-6.7734-23.141 0.003907v4.0469l23.145-0.003906v-4.043zm-53.5 4.8789h0.003906c0.27734-0.26953 0.72266-0.26953 1 0l4.7812 4.7812c0.53125 0.53125 1.3945 0.53125 1.9258 0l8.8711-8.8711c0.27734-0.27734 0.73047-0.27734 1.0078 0 0.28125 0.27734 0.27734 0.73047 0 1.0078l-10.121 10.133c-0.066406 0.070312-0.14844 0.125-0.23828 0.16016-0.078125 0.03125-0.15234 0.066406-0.22266 0.10938-0.12891 0.066407-0.27734 0.089844-0.42578 0.070313-0.15234-0.019532-0.29688-0.089844-0.40625-0.19922l-6.1719-6.1719v-0.003906c-0.26953-0.27734-0.27344-0.71875-0.007812-1l0.011719-0.011719zm-1.9219-1.9258c1.3438-1.3398 3.5156-1.3398 4.8594 0l3.8125 3.8125 7.9062-7.9062h0.003906c1.3398-1.3438 3.5195-1.3438 4.8633 0s1.3438 3.5234 0 4.8672l-10.125 10.129c-0.17188 0.16797-0.35547 0.31641-0.55859 0.44531-0.17188 0.11328-0.35547 0.21094-0.54688 0.28906-1.332 0.71094-2.9727 0.46484-4.0469-0.59766l-6.168-6.1758c-1.3398-1.3438-1.3398-3.5195 0-4.8633zm3.5742 18.852h-4.1211 0.003906c-2.1445-0.003906-3.8828-1.7422-3.8867-3.8867v-4.1211c-0.44531 0.082031-0.89844 0.125-1.3516 0.125-2.0977 0-4.1016-0.87891-5.5156-2.4297-1.4141-1.5469-2.1094-3.6211-1.918-5.7109 0.19141-2.0859 1.25-4 2.9219-5.2656 1.6719-1.2656 3.8008-1.7695 5.8633-1.3867v-4.1211c0.003906-2.1445 1.7422-3.8828 3.8867-3.8867h4.1211c-0.40625-2.1797 0.17969-4.4258 1.5977-6.1289 1.418-1.707 3.5195-2.6914 5.7344-2.6914 2.2188 0 4.3203 0.98438 5.7383 2.6914 1.418 1.7031 2.0039 3.9492 1.5977 6.1289h4.1211c2.1445 0.007813 3.8789 1.7422 3.8867 3.8867v22.91c-0.003907 2.1445-1.7422 3.8789-3.8867 3.8867h-4.1211c0.40234 2.1758-0.18359 4.4219-1.6016 6.125-1.4141 1.7031-3.5156 2.6914-5.7344 2.6914-2.2148 0-4.3164-0.98828-5.7344-2.6914-1.4141-1.7031-2-3.9492-1.5977-6.125z" fill-rule="evenodd"/>
</svg> 