<svg  width="50px" height="50px" xmlns="http://www.w3.org/2000/svg" xmlns:xlink="http://www.w3.org/1999/xlink" version="1.1" x="0px" y="0px" viewBox="0 0 24 30" style="enable-background:new 0 0 24 24;" xml:space="preserve"><title>Tech Support</title><g><path d="M21.161,10.142h-0.157C20.819,5.33,16.857,1.469,12,1.469c-4.889,0-8.873,3.912-9.008,8.77H2.839   c-1.452,0-2.589,1.137-2.589,2.589c0,1.403,1.186,2.589,2.589,2.589h0.227c0.067,0.194,0.164,0.368,0.312,0.489   c0.169,0.139,0.374,0.21,0.567,0.21c0.055,0,0.109-0.006,0.161-0.018c0.622,0,1.127-0.506,1.127-1.127v-4.483   c0-0.622-0.505-1.127-1.127-1.127c-0.213,0-0.401,0.075-0.571,0.178C4.01,5.287,7.623,1.969,12,1.969   c4.415,0,8.054,3.374,8.479,7.678c-0.173-0.108-0.366-0.188-0.585-0.188c-0.621,0-1.127,0.505-1.127,1.127v4.483   c0,0.621,0.506,1.127,1.127,1.127c0.218,0,0.406-0.078,0.575-0.185c-0.361,2.831-2.736,5.036-5.641,5.133   c-0.121-0.492-0.545-0.867-1.074-0.867c-0.621,0-1.127,0.506-1.127,1.127s0.506,1.127,1.127,1.127c0.536,0,0.965-0.385,1.078-0.887   c3.411-0.107,6.157-2.895,6.186-6.325h0.142c1.452,0,2.589-1.137,2.589-2.589C23.75,11.328,22.564,10.142,21.161,10.142z    M0.75,12.828c0-1.171,0.917-2.089,2.089-2.089h0.14v4.178h-0.14C1.707,14.917,0.75,13.96,0.75,12.828z M4.106,9.862   c0.352,0,0.627,0.275,0.627,0.627v4.483c0,0.352-0.275,0.627-0.676,0.632c-0.135,0.027-0.261-0.001-0.361-0.084   c-0.137-0.112-0.216-0.312-0.216-0.548V10.49c0-0.001,0-0.001,0-0.002C3.479,10.137,3.755,9.862,4.106,9.862z M13.754,22.032   c-0.346,0-0.627-0.281-0.627-0.627s0.281-0.627,0.627-0.627s0.627,0.281,0.627,0.627S14.1,22.032,13.754,22.032z M19.894,15.697   c-0.346,0-0.627-0.281-0.627-0.627v-4.483c0-0.346,0.281-0.627,0.627-0.627c0.353,0,0.628,0.275,0.628,0.627v4.386   C20.521,15.399,20.264,15.697,19.894,15.697z M21.161,14.82h-0.14v-4.178h0.14c1.132,0,2.089,0.957,2.089,2.089   C23.25,13.902,22.332,14.82,21.161,14.82z"/><path d="M14.855,10.584c0-1.574-1.281-2.855-2.855-2.855S9.145,9.01,9.145,10.584s1.281,2.855,2.855,2.855   S14.855,12.158,14.855,10.584z M12,12.939c-1.298,0-2.355-1.057-2.355-2.355c0-1.298,1.057-2.355,2.355-2.355   c1.299,0,2.355,1.057,2.355,2.355C14.355,11.883,13.299,12.939,12,12.939z"/><path d="M13.343,14.649c0-0.238,0.194-0.36,0.279-0.402c0.139-0.07,0.224-0.057,0.306,0.019c0.129,0.192,0.346,0.317,0.596,0.342   c0.309,0.026,0.611-0.085,0.831-0.304l0.417-0.417c0.201-0.201,0.309-0.441,0.309-0.696c0-0.256-0.106-0.497-0.308-0.698   c-0.046-0.05-0.104-0.246-0.058-0.339c0.082-0.164,0.223-0.278,0.297-0.278c0.559,0,0.979-0.421,0.979-0.979V10.27   c0-0.558-0.421-0.979-0.979-0.979c-0.077,0-0.229-0.083-0.281-0.136c-0.001-0.002-0.002-0.005-0.002-0.007   c-0.098-0.289-0.061-0.369,0.043-0.472c0.202-0.201,0.309-0.443,0.309-0.698s-0.106-0.497-0.309-0.698l-0.417-0.417   c-0.402-0.403-0.992-0.402-1.395-0.001c-0.051,0.046-0.246,0.103-0.371,0.044c-0.218-0.072-0.246-0.189-0.254-0.344   c-0.137-0.549-0.568-0.918-1.075-0.918h-0.521c-0.558,0-0.979,0.421-0.979,0.979c0,0.123-0.053,0.253-0.063,0.271   c-0.027,0-0.054,0.004-0.08,0.013c-0.291,0.098-0.37,0.059-0.473-0.044c-0.411-0.411-0.985-0.411-1.396,0L8.333,7.281   C7.922,7.692,7.922,8.266,8.332,8.676c0.046,0.049,0.104,0.246,0.045,0.371c-0.055,0.163-0.13,0.246-0.39,0.246   c-0.585,0-0.979,0.56-0.979,1.083v0.521c0,0.558,0.421,0.979,0.979,0.979c0.181,0,0.271,0.107,0.271,0.167   c0,0.039,0.009,0.077,0.026,0.112c0.07,0.139,0.056,0.224-0.057,0.337c-0.202,0.202-0.308,0.443-0.308,0.698   s0.106,0.496,0.308,0.697l0.386,0.379c0.128,0.192,0.346,0.317,0.596,0.342c0.304,0.03,0.611-0.083,0.83-0.302   c0.05-0.046,0.245-0.107,0.372-0.045c0.243,0.081,0.246,0.376,0.253,0.449c0.14,0.558,0.562,0.918,1.076,0.918h0.521   C12.897,15.628,13.343,15.226,13.343,14.649z M12.26,15.128h-0.521c-0.277,0-0.509-0.212-0.583-0.479   c0-0.332-0.182-0.728-0.555-0.85c-0.1-0.05-0.208-0.07-0.316-0.07c-0.244,0-0.482,0.105-0.598,0.221   c-0.114,0.114-0.278,0.177-0.429,0.159c-0.059-0.005-0.167-0.029-0.26-0.159l-0.417-0.417c-0.105-0.105-0.162-0.225-0.162-0.344   c0-0.12,0.056-0.239,0.162-0.345c0.252-0.253,0.312-0.551,0.174-0.866c-0.037-0.338-0.367-0.604-0.768-0.604   c-0.277,0-0.479-0.202-0.479-0.479v-0.521c0-0.275,0.205-0.583,0.479-0.583c0.449,0,0.731-0.192,0.851-0.555   c0.157-0.314,0.018-0.744-0.151-0.914c-0.215-0.215-0.215-0.473,0-0.689l0.416-0.417c0.216-0.216,0.473-0.216,0.688,0   c0.314,0.315,0.656,0.271,0.953,0.175c0.355-0.035,0.516-0.461,0.516-0.769c0-0.277,0.202-0.479,0.479-0.479h0.521   c0.277,0,0.509,0.212,0.583,0.479c0,0.357,0.214,0.634,0.556,0.745c0.312,0.156,0.744,0.018,0.914-0.151   c0.209-0.21,0.477-0.212,0.688,0l0.417,0.417c0.105,0.106,0.162,0.225,0.162,0.344s-0.057,0.238-0.162,0.344   c-0.319,0.319-0.269,0.666-0.171,0.964c0.057,0.275,0.493,0.504,0.765,0.504c0.278,0,0.479,0.202,0.479,0.479v0.626   c0,0.277-0.201,0.479-0.48,0.479c-0.323,0.001-0.606,0.28-0.743,0.556c-0.157,0.314-0.019,0.743,0.15,0.914   c0.106,0.106,0.162,0.226,0.162,0.345s-0.057,0.238-0.162,0.344l-0.417,0.417c-0.113,0.114-0.284,0.168-0.428,0.16   c-0.06-0.006-0.168-0.03-0.261-0.16c-0.267-0.267-0.584-0.318-0.914-0.15c-0.348,0.172-0.556,0.49-0.556,0.85   C12.843,14.944,12.619,15.128,12.26,15.128z"/></g></svg>