<svg width="50px" height="50px" xmlns="http://www.w3.org/2000/svg" version="1.1" viewBox="0 -10.0 110.0 135.0">
 <path d="m88.75 15.391h-46.117c-0.69141 0-1.25 0.55859-1.25 1.25v4.5078c0 0.69141 0.55859 1.25 1.25 1.25h0.77344v21.984c0 0.69141 0.55859 1.25 1.25 1.25h19.785v3.4961c-1.3008 0.50391-2.2266 1.7656-2.2266 3.2461 0 1.9141 1.5586 3.4727 3.4766 3.4727 1.918 0 3.4766-1.5586 3.4766-3.4727 0-1.4766-0.92578-2.7422-2.2266-3.2461v-3.4961h19.777c0.69141 0 1.25-0.55859 1.25-1.25v-21.984h0.77734c0.69141 0 1.25-0.55859 1.25-1.25v-4.5078c0-0.69141-0.55859-1.25-1.25-1.25zm-23.059 37.957c-0.53906 0-0.97656-0.4375-0.97656-0.97266s0.4375-0.97656 0.97656-0.97656c0.53906 0 0.97656 0.4375 0.97656 0.97656s-0.4375 0.97266-0.97656 0.97266zm-21.809-35.457h43.617v2.0078h-43.617zm41.586 25.242h-39.562v-20.734h39.562zm-29.785 26.531c0.93359-1.2227 1.4883-2.7539 1.4883-4.4102 0-3.9922-3.2188-7.2422-7.1758-7.2422-3.957 0-7.1758 3.25-7.1758 7.2422 0 1.6562 0.55469 3.1875 1.4883 4.4102-3.9805 0.82813-6.9922 4.4102-6.9922 8.6641v5.0273c0 0.69141 0.55859 1.25 1.25 1.25h22.867c0.69141 0 1.25-0.55859 1.25-1.25v-5.0273c0-4.2539-3.0117-7.832-6.9961-8.6641zm-5.6875-9.1523c2.5781 0 4.6758 2.1289 4.6758 4.7422 0 2.6133-2.0977 4.7461-4.6758 4.7461s-4.6758-2.1289-4.6758-4.7461c0-2.6172 2.0977-4.7422 4.6758-4.7422zm10.188 21.594h-20.367v-3.7773c0-3.4727 2.7812-6.3203 6.1953-6.3477h1.3242c0.82422 0.33203 1.7188 0.51953 2.6602 0.51953s1.8359-0.18359 2.6602-0.51953h1.3164c3.4258 0.027343 6.2109 2.8711 6.2109 6.3477zm-31.812-12.441c0.93359-1.2227 1.4883-2.7539 1.4883-4.4102 0-3.9922-3.2188-7.2422-7.1758-7.2422-3.957 0-7.1758 3.25-7.1758 7.2422 0 1.6562 0.55469 3.1875 1.4883 4.4102-3.9844 0.82813-6.9961 4.4102-6.9961 8.6641v5.0273c0 0.69141 0.55859 1.25 1.25 1.25h22.867c0.69141 0 1.25-0.55859 1.25-1.25v-5.0273c0-4.2539-3.0078-7.832-6.9922-8.6641zm-5.6875-9.1523c2.5781 0 4.6758 2.1289 4.6758 4.7422 0 2.6133-2.0977 4.7461-4.6758 4.7461s-4.6758-2.1289-4.6758-4.7461c0-2.6172 2.0977-4.7422 4.6758-4.7422zm10.18 21.594h-20.363v-3.7773c0-3.4727 2.7852-6.3203 6.1992-6.3477h1.3242c0.82422 0.33203 1.7188 0.51953 2.6602 0.51953s1.8359-0.18359 2.6602-0.51953h1.3164c3.4219 0.027343 6.2031 2.8711 6.2031 6.3477zm50.137-12.441c0.93359-1.2227 1.4883-2.7539 1.4883-4.4102 0-3.9922-3.2188-7.2422-7.1719-7.2422s-7.1758 3.25-7.1758 7.2422c0 1.6562 0.55469 3.1875 1.4883 4.4102-3.9844 0.82813-6.9961 4.4102-6.9961 8.6641v5.0273c0 0.69141 0.55859 1.25 1.25 1.25h22.867c0.69141 0 1.25-0.55859 1.25-1.25v-5.0273c0-4.2539-3.0117-7.832-6.9961-8.6641zm-5.6836-9.1523c2.5742 0 4.6719 2.1289 4.6719 4.7422 0 2.6133-2.0977 4.7461-4.6719 4.7461-2.5742 0-4.6758-2.1289-4.6758-4.7461 0-2.6172 2.0977-4.7422 4.6758-4.7422zm10.184 21.594h-20.367v-3.7773c0-3.4727 2.7852-6.3203 6.1992-6.3477h1.3242c0.82422 0.33203 1.7188 0.51953 2.6602 0.51953s1.8359-0.18359 2.6562-0.51953h1.3125c3.4258 0.027343 6.2109 2.8711 6.2109 6.3477v3.7773zm-21.809-44.152c2.8594 0 5.1875-2.3281 5.1875-5.1875s-2.3281-5.1875-5.1875-5.1875-5.1875 2.3281-5.1875 5.1875 2.3281 5.1875 5.1875 5.1875zm0-7.875c1.4805 0 2.6875 1.207 2.6875 2.6875s-1.207 2.6875-2.6875 2.6875c-1.4805 0-2.6875-1.207-2.6875-2.6875s1.207-2.6875 2.6875-2.6875zm-8.9766 4.8164 0.81641 0.50391 0.52344 1.2695-0.22266 0.92969c-0.10156 0.42188 0.027344 0.86719 0.33203 1.1719l1.5156 1.5156c0.30859 0.30859 0.75 0.43359 1.1719 0.33203l0.92969-0.22266 1.2656 0.52344 0.5 0.81641c0.22656 0.37109 0.63281 0.59375 1.0664 0.59375h2.1406c0.43359 0 0.83594-0.22266 1.0625-0.59375l0.50391-0.81641 1.2695-0.52344 0.92969 0.22266c0.42188 0.10156 0.86719-0.023438 1.1719-0.33203l1.5156-1.5156c0.30859-0.30859 0.43359-0.75 0.33203-1.1719l-0.22266-0.92969 0.52344-1.2695 0.81641-0.50391c0.36719-0.22656 0.59375-0.62891 0.59375-1.0625v-2.1367c0-0.43359-0.22266-0.83594-0.59375-1.0625l-0.81641-0.50391-0.52344-1.2695 0.22266-0.92969c0.10156-0.42188-0.027343-0.86719-0.33203-1.1719l-1.5156-1.5156c-0.30859-0.30859-0.75-0.43359-1.1719-0.33203l-0.92969 0.22266-1.2695-0.52344-0.50391-0.81641c-0.22656-0.36719-0.62891-0.59375-1.0625-0.59375h-2.1406c-0.43359 0-0.83984 0.22656-1.0664 0.59766l-0.5 0.81641-1.2656 0.52344-0.92969-0.22266c-0.42187-0.10156-0.86719 0.023438-1.1719 0.33203l-1.5156 1.5156c-0.30859 0.30859-0.43359 0.75-0.33203 1.1719l0.22266 0.92969-0.52344 1.2695-0.81641 0.50391c-0.36719 0.22656-0.59375 0.62891-0.59375 1.0625v2.1367c0 0.43359 0.22266 0.83594 0.59375 1.0625zm1.9062-2.5 0.56641-0.35156c0.22266-0.13672 0.39844-0.34375 0.49609-0.58594l0.83203-2.0156c0.10156-0.24219 0.12109-0.51172 0.0625-0.76562l-0.15234-0.64453 0.52734-0.52734 0.64453 0.15234c0.25391 0.058594 0.52344 0.039062 0.76562-0.0625l2.0156-0.83203c0.24219-0.10156 0.44922-0.27734 0.58984-0.5l0.34766-0.56641h0.74219l0.35156 0.56641c0.13672 0.22266 0.34375 0.39844 0.58594 0.49609l2.0156 0.83203c0.24219 0.10156 0.51172 0.12109 0.76562 0.0625l0.64453-0.15234 0.52734 0.52734-0.15234 0.64453c-0.0625 0.25391-0.039063 0.52344 0.0625 0.76562l0.83203 2.0156c0.10156 0.24219 0.27344 0.44922 0.49609 0.58594l0.56641 0.35156v0.74219l-0.56641 0.35156c-0.22266 0.13672-0.39844 0.34375-0.49609 0.58594l-0.83203 2.0156c-0.10156 0.24219-0.12109 0.51172-0.0625 0.76562l0.15234 0.64453-0.52734 0.52734-0.64453-0.15234c-0.25391-0.0625-0.52344-0.039063-0.76562 0.0625l-2.0156 0.83203c-0.24219 0.10156-0.44922 0.27344-0.58594 0.49609l-0.35156 0.56641h-0.74219l-0.34766-0.56641c-0.13672-0.22656-0.34375-0.39844-0.58984-0.5l-2.0156-0.83203c-0.24219-0.10156-0.51172-0.12109-0.76562-0.0625l-0.64453 0.15234-0.52734-0.52734 0.15234-0.64453c0.0625-0.25391 0.039063-0.52344-0.0625-0.76562l-0.83203-2.0156c-0.10156-0.24219-0.27344-0.44922-0.49609-0.58594l-0.56641-0.35156v-0.74219zm-47.371 17.668h27.457c0.69141 0 1.25-0.55859 1.25-1.25v-8.6445c0-5.3047-3.9961-9.7188-9.1094-10.309 1.5391-1.5312 2.4961-3.6602 2.4961-6.0156 0-4.6602-3.7539-8.4531-8.3633-8.4531s-8.3633 3.7891-8.3633 8.4531c0 2.3516 0.95703 4.4805 2.4961 6.0156-5.1133 0.58594-9.1133 5.0039-9.1133 10.309v8.6445c0 0.69141 0.55859 1.25 1.25 1.25zm13.73-32.168c3.2344 0 5.8633 2.6719 5.8633 5.9531s-2.6289 5.9453-5.8633 5.9453-5.8633-2.668-5.8633-5.9453 2.6289-5.9531 5.8633-5.9531zm-12.48 22.273c0-4.3047 3.457-7.8359 7.6914-7.875h9.5664c4.2461 0.039062 7.6992 3.5703 7.6992 7.875v7.3945h-4.1133v-4.9688c0-0.69141-0.55859-1.25-1.25-1.25s-1.25 0.55859-1.25 1.25v4.9688h-11.727v-4.9688c0-0.69141-0.55859-1.25-1.25-1.25-0.69141 0-1.25 0.55859-1.25 1.25v4.9688h-4.1172z"/></svg>