<svg  width="80px" height="80px" xmlns="http://www.w3.org/2000/svg" version="1.1" viewBox="-5.0 -10.0 110.0 135.0">
 <path d="m61.645 69.785c4.125 0 8.082-1.6406 11-4.5586 2.918-2.918 4.5586-6.875 4.5586-11 0-4.1289-1.6406-8.0859-4.5586-11.004-2.918-2.918-6.875-4.5547-11-4.5547s-8.082 1.6367-11 4.5547c-2.918 2.918-4.5586 6.875-4.5586 11.004 0.003906 4.125 1.6445 8.0781 4.5625 10.996 2.918 2.9141 6.8711 4.5547 10.996 4.5625zm0-28.629v-0.003906c5.2852 0 10.055 3.1875 12.074 8.0703 2.0234 4.8828 0.90625 10.508-2.832 14.246s-9.3594 4.8555-14.242 2.832c-4.8867-2.0234-8.0703-6.7891-8.0703-12.074 0.007812-7.2188 5.8555-13.062 13.07-13.074zm31.93 38.922-8.9102-8.9102v-0.875h2.8242c2.0273 0.089843 3.7461-1.4766 3.8477-3.5039v-15.816c-0.10156-2.0273-1.8203-3.5938-3.8477-3.5039h-2.8242v-3.5h2.8242c2.0273 0.089844 3.7461-1.4766 3.8477-3.5039v-15.816c-0.10156-2.0273-1.8203-3.5898-3.8477-3.5039h-2.8242v-5.8867c0-1.6445-1.332-2.9766-2.9766-2.9766h-67.445c-1.6406 0.003906-2.9727 1.3359-2.9766 2.9766v5.8867h-2.5742c-2.0273-0.085937-3.7461 1.4766-3.8516 3.5039v15.816c0.10547 2.0273 1.8242 3.5938 3.8516 3.5039h2.5781v3.5h-2.5781c-2.0312-0.089844-3.7461 1.4766-3.8516 3.5039v15.816c0.10547 2.0273 1.8203 3.5938 3.8516 3.5039h2.5781l-0.003906 5.8008c0.003906 1.6445 1.3359 2.9766 2.9766 2.9766h13.418v4.3164c0.003906 0.6875 0.55859 1.2422 1.2461 1.2461h38.301c0.6875 0 1.2461-0.55859 1.2461-1.2461v-4.3164h12.004l7.0625 7.0625c0.90234 0.97656 2.1602 1.5508 3.4922 1.5859 1.0977 0 2.1523-0.4375 2.9336-1.2148 1.5039-1.5039 1.8594-4.1953-0.37109-6.4258zm-13.961-11.262-0.80859 0.80859-2.332-2.332c1.5469-1.7539 2.7734-3.7695 3.6172-5.9492h1.5977c0.26953 0 0.48828 0.21875 0.48828 0.48828v6.8633c-0.75781-0.625-1.8672-0.57422-2.5625 0.12109zm-37.68-13.035c0.082031 1.0391 0.24609 2.0664 0.48828 3.0742h-12.273v-3.0742zm-0.039063-2.4883-27.652 0.003906c-0.26953 0-0.48828-0.21875-0.48828-0.49219v-14.262c0-0.26953 0.21875-0.49219 0.48828-0.49219h36.035c-5 3.5156-8.0938 9.1406-8.3828 15.246zm24.07-20.793v2.4336c-3.6133-0.80859-7.3789-0.58594-10.871 0.64062h-24.945v-3.0742zm15.43 20.797c-0.28906-6.1016-3.3828-11.727-8.3828-15.242h8.6758c0.26953 0.003906 0.48828 0.22266 0.48828 0.49219v14.262-0.003906c0 0.27344-0.21875 0.49219-0.48828 0.49219zm-19.75-16.355c4.5859 0 8.9805 1.8203 12.223 5.0625 3.2422 3.2422 5.0625 7.6406 5.0625 12.223 0 4.5859-1.8203 8.9805-5.0625 12.223-3.2422 3.2422-7.6406 5.0625-12.223 5.0625-4.5859 0-8.9805-1.8203-12.223-5.0625-3.2422-3.2422-5.0625-7.6406-5.0625-12.223 0.003906-4.5859 1.8281-8.9766 5.0703-12.219 3.2383-3.2383 7.6328-5.0625 12.215-5.0664zm25.844 13.02c0.73828 0 1.3633 0.46484 1.3633 1.0156v15.812c0 0.55078-0.625 1.0156-1.3633 1.0156h-2.8242v-5.9727c0-1.6445-1.332-2.9766-2.9766-2.9766h-0.82031c0.24609-1.0117 0.40625-2.0391 0.48828-3.0781h0.33203c1.6445 0 2.9766-1.332 2.9766-2.9727v-2.8477zm0-26.324c0.73828 0 1.3633 0.46484 1.3633 1.0156v15.812c0 0.55078-0.625 1.0156-1.3633 1.0156h-2.8242v-2.9375c0-1.6445-1.332-2.9766-2.9766-2.9766h-13.234v-3.0664h13.234c1.6445 0 2.9766-1.332 2.9766-2.9766v-5.8906zm-73.738-8.3789c0-0.26953 0.21875-0.48828 0.48828-0.48828h67.449c0.26953 0 0.48828 0.21875 0.48828 0.48828v14.262c0 0.26953-0.21875 0.48828-0.48828 0.48828h-67.445c-0.26953 0-0.48828-0.21875-0.48828-0.48828zm-5.0586 26.223c-0.73828 0-1.3594-0.46484-1.3594-1.0156l-0.003906-15.816c0-0.55078 0.625-1.0156 1.3594-1.0156h2.5781v5.8867c0 1.6445 1.332 2.9805 2.9766 2.9805h13.418v3.0742h-13.418c-1.6406 0.003906-2.9688 1.3281-2.9766 2.9688v2.9336zm0 26.324c-0.73828 0-1.3594-0.46484-1.3594-1.0156l-0.003906-15.816c0-0.55078 0.625-1.0156 1.3594-1.0156h2.5781v2.8516-0.003906c0.003906 1.6445 1.3359 2.9766 2.9766 2.9766h13.418v3.0742h-13.418c-1.6406 0-2.9727 1.332-2.9766 2.9766v5.9727zm57.273 14.34h-35.816v-3.0742h35.816zm-51.723-5.5625c-0.26953 0-0.48828-0.21875-0.48828-0.48828v-14.262c0-0.26953 0.21875-0.48828 0.48828-0.48828h28.957c2.3281 6.0352 7.4609 10.551 13.742 12.09 6.2852 1.5352 12.922-0.10156 17.773-4.3828l2.3359 2.3359-0.78906 0.78906h-0.003907c-0.74219 0.74609-0.74219 1.9492 0 2.6953l1.7109 1.7109zm77.945 8.1602c-0.63281 0.63281-1.7695 0.76172-2.9062-0.37109l-10.855-10.848 2.5352-2.5391 10.852 10.852c1.1328 1.1328 1 2.2773 0.375 2.9062zm-37.641-29.156c-0.45703 1.7422 0.007813 3.6016 1.2305 4.9258 0.94141 0.91406 2.2109 1.4062 3.5234 1.3672 0.46094 0 0.91797-0.046875 1.3672-0.13672l0.027343-0.007813 0.92578 0.92578-0.26172 1.9336c-0.042969 0.32422 0.042969 0.65625 0.24219 0.91797 0.20313 0.26562 0.49609 0.4375 0.82422 0.48047 0.054688 0.007812 0.11328 0.011718 0.16797 0.011718 0.62109 0 1.1484-0.46094 1.2305-1.0781l0.34375-2.543c0.054687-0.38281-0.078125-0.76953-0.35156-1.0469l-0.5625-0.5625c0.27344-0.14844 0.53906-0.3125 0.80078-0.49219l1.9258 1.9258c0.48438 0.48438 1.2734 0.48438 1.7578 0s0.48438-1.2734 0-1.7578l-1.7773-1.7773c0.20703-0.22266 0.41797-0.45703 0.60547-0.69141l0.67188 0.67188v-0.003906c0.23047 0.23047 0.54688 0.36328 0.87891 0.36328 0.078124 0 0.16016-0.007813 0.23828-0.023438l2.8672-0.56641h0.003906c0.32813-0.058594 0.62109-0.24609 0.8125-0.51953 0.1875-0.27734 0.25781-0.61719 0.19531-0.94531-0.066406-0.33203-0.26172-0.61719-0.54297-0.80078-0.27734-0.18359-0.62109-0.24609-0.94922-0.17578l-2.2148 0.4375-0.59766-0.59766h-0.003907c0.28906-0.60937 0.50781-1.25 0.65234-1.9062 1.4883-0.59766 2.5781-1.9023 2.8984-3.4727 0.32422-1.5703-0.16406-3.1953-1.3008-4.3281-1.1328-1.1328-2.7578-1.625-4.3281-1.3008-1.5703 0.32031-2.875 1.4102-3.4727 2.8945-0.65625 0.14453-1.2969 0.36328-1.9062 0.65625l-0.72266-0.72266 0.4375-2.2148c0.074218-0.32812 0.011718-0.67188-0.17188-0.95312-0.18359-0.27734-0.46875-0.47266-0.80078-0.53906-0.32813-0.066406-0.66797 0.003906-0.94531 0.19531-0.27344 0.19141-0.46094 0.48438-0.51953 0.8125l-0.56641 2.8711c-0.078126 0.40625 0.046874 0.82422 0.33984 1.1211l0.79297 0.79297c-0.23828 0.19141-0.46875 0.39453-0.69141 0.60547l-1.9023-1.9023c-0.48438-0.48438-1.2734-0.48438-1.7578 0-0.48828 0.48437-0.48828 1.2734-0.003907 1.7578l2.0391 2.043c-0.17969 0.26562-0.34375 0.53125-0.49219 0.80078l-0.67969-0.67969h0.003906c-0.27734-0.27344-0.66406-0.40625-1.0469-0.35547l-2.543 0.34375v0.003906c-0.33203 0.039062-0.63281 0.20703-0.83984 0.47266-0.20313 0.26172-0.29297 0.59766-0.25 0.92969 0.042968 0.32812 0.22266 0.62891 0.48828 0.82812 0.26953 0.19922 0.60547 0.28516 0.93359 0.23438l1.9336-0.26172zm10.648-7.7188h-0.003906c0.77344-0.77344 1.9805-0.89063 2.8867-0.28516s1.2578 1.7656 0.83984 2.7734c-0.41406 1.0039-1.4844 1.5781-2.5547 1.3672-1.0703-0.21484-1.8398-1.1523-1.8398-2.2422 0-0.60547 0.24219-1.1875 0.66797-1.6133zm0.73047 6.3047-0.003906-0.003906c-0.42578 1.1172-1.082 2.125-1.9336 2.9609-0.90625 0.92969-2.0234 1.6289-3.2578 2.0391h-0.011719c-0.17578 0.054687-0.35156 0.097656-0.52734 0.13281h-0.003906c-0.91797 0.25391-1.9023 0.050781-2.6484-0.54688-1.3086-1.3086-0.56641-4.2656 1.625-6.457v-0.003906c0.83203-0.85156 1.8438-1.5117 2.957-1.9375 0.36328 1.9336 1.8711 3.4453 3.8008 3.8125zm-12.246-27.504h24.582c0.6875-0.003907 1.2422-0.55859 1.2461-1.2461v-6.043 0.003906c0-0.6875-0.55859-1.2461-1.2461-1.2461h-24.582c-0.32813 0-0.64453 0.13281-0.87891 0.36328-0.23438 0.23438-0.36328 0.55078-0.36328 0.88281v6.043-0.003906c0 0.6875 0.55469 1.2461 1.2422 1.2461zm1.2422-6.043h22.094v3.5586h-22.09zm-37.512-1.2461c-0.003906-0.32812 0.12891-0.64453 0.36328-0.87891 0.23047-0.23438 0.54687-0.36328 0.87891-0.36328h4.4492c0.68359 0 1.2422 0.55469 1.2422 1.2422s-0.55859 1.2461-1.2422 1.2461h-4.4492c-0.6875 0-1.2422-0.55859-1.2422-1.2461zm8.7266 0h-0.003907c0-0.6875 0.55859-1.2422 1.2461-1.2422h4.4492c0.6875 0 1.2422 0.55469 1.2422 1.2422s-0.55469 1.2461-1.2422 1.2461h-4.4492c-0.6875-0.003906-1.2422-0.55859-1.2461-1.2461zm8.7266 0c-0.003906-0.32812 0.12891-0.64453 0.36328-0.87891 0.23047-0.23438 0.54688-0.36328 0.87891-0.36328h4.4492c0.68359 0 1.2422 0.55469 1.2422 1.2422s-0.55859 1.2461-1.2422 1.2461h-4.4492c-0.33203 0-0.64453-0.13281-0.87891-0.36719-0.23437-0.23047-0.36328-0.54687-0.36328-0.87891zm-17.453 5.9336c0-0.6875 0.55469-1.2422 1.2422-1.2422h4.4492c0.68359 0 1.2422 0.55469 1.2422 1.2422s-0.55859 1.2422-1.2422 1.2422h-4.4492c-0.33203 0-0.64844-0.12891-0.87891-0.36328-0.23438-0.23438-0.36719-0.55078-0.36328-0.87891zm8.7266 0h-0.003907c0.003907-0.68359 0.55859-1.2422 1.2461-1.2422h4.4492c0.6875 0 1.2422 0.55469 1.2422 1.2422s-0.55469 1.2422-1.2422 1.2422h-4.4492c-0.33203 0-0.64844-0.12891-0.87891-0.36328-0.23438-0.23438-0.36719-0.55078-0.36719-0.87891zm8.7266 0c0-0.6875 0.55469-1.2422 1.2422-1.2422h4.4492c0.68359 0 1.2422 0.55469 1.2422 1.2422s-0.55859 1.2422-1.2422 1.2422h-4.4492c-0.33203 0-0.64844-0.12891-0.87891-0.36328-0.23437-0.23438-0.36719-0.55078-0.36328-0.87891zm-10.52 17.406h-0.003906c0 0.6875-0.55469 1.2422-1.2422 1.2422h-4.4492c-0.33594 0.011718-0.66016-0.11719-0.90234-0.34766-0.24219-0.23438-0.375-0.55859-0.375-0.89453s0.13281-0.65625 0.375-0.89062c0.24219-0.23438 0.56641-0.36328 0.90234-0.35156h4.4492c0.32812 0 0.64844 0.12891 0.88281 0.36328s0.36328 0.55078 0.36328 0.88281zm8.7266 0h-0.003906c0 0.6875-0.55469 1.2422-1.2422 1.2422h-4.4453c-0.33594 0.011718-0.66406-0.11719-0.90234-0.34766-0.24219-0.23438-0.37891-0.55859-0.37891-0.89453s0.13672-0.65625 0.37891-0.89062c0.23828-0.23438 0.56641-0.36328 0.90234-0.35156h4.4492c0.32812 0 0.64453 0.12891 0.87891 0.36328s0.36328 0.55078 0.36328 0.88281zm8.7266 0h-0.003906c0 0.32812-0.12891 0.64453-0.36328 0.87891-0.23438 0.23438-0.55078 0.36328-0.87891 0.36328h-4.4492c-0.33594 0.011718-0.66016-0.11719-0.90234-0.34766-0.24219-0.23438-0.375-0.55859-0.375-0.89453s0.13281-0.65625 0.375-0.89062c0.24219-0.23438 0.56641-0.36328 0.90234-0.35156h4.4492c0.32812 0 0.64844 0.12891 0.88281 0.36328s0.36328 0.55078 0.36328 0.88281zm-17.453 5.9375h-0.003906c-0.003906 0.68359-0.55859 1.2422-1.2422 1.2422h-4.4492c-0.6875 0-1.2422-0.55469-1.2422-1.2422s0.55469-1.2422 1.2422-1.2422h4.4492c0.32812-0.003906 0.64844 0.12891 0.88281 0.36328s0.36328 0.55078 0.36328 0.88281zm8.7266 0h-0.003906c-0.003906 0.68359-0.55859 1.2422-1.2422 1.2422h-4.4453c-0.6875 0-1.2461-0.55469-1.2461-1.2422s0.55859-1.2422 1.2461-1.2422h4.4492c0.32812 0 0.64453 0.12891 0.87891 0.36328s0.36328 0.55078 0.36328 0.88281zm8.7266 0h-0.003906c0 0.6875-0.55469 1.2422-1.2422 1.2422h-4.4492c-0.6875 0-1.2422-0.55469-1.2422-1.2422s0.55469-1.2422 1.2422-1.2422h4.4492c0.32812-0.003906 0.64844 0.12891 0.88281 0.36328s0.36328 0.55078 0.36328 0.88281zm-17.453 17.41c-0.003906 0.68359-0.55859 1.2383-1.2422 1.2422h-4.4492c-0.6875 0-1.2422-0.55859-1.2422-1.2422 0-0.6875 0.55469-1.2461 1.2422-1.2461h4.4492c0.68359 0.003907 1.2383 0.55859 1.2422 1.2461zm8.7266 0c-0.003906 0.68359-0.55859 1.2383-1.2422 1.2422h-4.4492c-0.6875 0-1.2461-0.55859-1.2461-1.2422 0-0.6875 0.55859-1.2461 1.2461-1.2461h4.4492c0.68359 0.003907 1.2383 0.55859 1.2422 1.2461zm8.7266 0c0 0.68359-0.55859 1.2422-1.2422 1.2422h-4.4492c-0.6875 0-1.2422-0.55859-1.2422-1.2422 0-0.6875 0.55469-1.2461 1.2422-1.2461h4.4492c0.68359 0 1.2422 0.55859 1.2422 1.2461zm-17.453 5.9336c0 0.6875-0.55859 1.2422-1.2422 1.2422h-4.4492c-0.6875 0-1.2422-0.55469-1.2422-1.2422s0.55469-1.2422 1.2422-1.2422h4.4492c0.68359 0 1.2383 0.55859 1.2422 1.2422zm8.7266 0c0 0.6875-0.55469 1.2422-1.2422 1.2422h-4.4492c-0.6875 0-1.2461-0.55469-1.2461-1.2422s0.55859-1.2422 1.2461-1.2422h4.4492c0.68359 0 1.2383 0.55859 1.2422 1.2422zm8.7266 0c0 0.32812-0.12891 0.64453-0.36328 0.87891s-0.55078 0.36328-0.87891 0.36328h-4.4492c-0.6875 0-1.2422-0.55469-1.2422-1.2422s0.55469-1.2422 1.2422-1.2422h4.4492c0.32812 0 0.64453 0.12891 0.87891 0.36328 0.23047 0.23438 0.36328 0.55078 0.36328 0.87891z"/>
</svg>